<svg width="77" height="43" viewBox="0 0 77 43" fill="none" xmlns="http://www.w3.org/2000/svg">
<path d="M75.0666 38.991L48.1521 38.2156C48.1407 38.2146 48.1283 38.2156 48.1169 38.2146C48.1102 38.2146 48.1026 38.2137 48.096 38.2137C41.9473 38.2137 36.3473 29.6963 36.3473 20.344C36.3473 13.5729 39.405 7.73419 43.7277 5.30269C43.7324 5.30749 43.7353 5.31324 43.74 5.31899C46.2033 8.16739 44.6331 11.1969 44.4381 11.5468C43.8913 12.4994 44.2089 13.7204 45.1524 14.2792C45.4572 14.4606 45.8047 14.5562 46.1586 14.5562C46.8406 14.5562 47.5054 14.2025 47.8763 13.5681C47.9999 13.3562 50.603 8.77311 47.7793 4.10755C47.8905 4.1018 48.0028 4.09797 48.115 4.09701C49.1621 4.10755 50.5783 4.18997 52.0848 4.53213C52.1143 4.5628 52.1428 4.59443 52.1742 4.62318C55.5543 7.74665 53.2375 13.4118 53.2137 13.4684C52.7848 14.4853 53.2508 15.6603 54.259 16.0964C54.5148 16.2075 54.7811 16.2593 55.0436 16.2593C55.814 16.2593 56.5482 15.805 56.8725 15.0469C56.9648 14.8284 58.3781 11.4298 57.9025 7.68818C58.0832 7.88178 58.2592 8.08593 58.4275 8.30061C60.4657 10.9017 61.1448 14.6817 60.4324 19.33C60.362 19.5361 60.3211 19.7556 60.3211 19.9856V19.9914C60.207 20.6335 60.0672 21.291 59.9017 21.9638C59.6364 23.0391 60.2859 24.1269 61.3531 24.3943C62.4202 24.6636 63.4987 24.0052 63.764 22.9318C63.843 22.6136 63.9152 22.3002 63.9828 21.9906H72.6842C73.7836 21.9906 74.6748 21.0926 74.6748 19.9856C74.6748 18.8786 73.7846 17.9806 72.6851 17.9806H64.5991C65.1022 11.934 63.3389 8.09455 61.5518 5.81449C58.6529 2.11501 53.9556 0.0850861 48.3062 0.0850861C48.2301 0.0850861 48.153 0.0860455 48.077 0.0860455C44.3402 0.122465 40.9039 1.83515 38.2038 4.66151C35.8775 2.16484 32.8236 -0.549385 26.4837 0.0965867C18.6031 0.893029 12.4467 7.87891 11.1904 16.935H3.0872C1.98775 16.935 1.09754 17.833 1.09754 18.94C1.09754 20.0469 1.98775 20.945 3.0872 20.945H10.9631L11.0201 25.2051C11.0344 26.3035 11.9227 27.1833 13.0088 27.1833H13.0364C14.1349 27.167 15.0147 26.2575 14.9994 25.1505L14.9348 20.344C14.9348 11.7634 20.0706 4.77557 26.8812 4.08647C31.7013 3.60151 33.6177 5.55763 35.7386 7.88083C34.6791 9.60981 33.8355 11.5621 33.2563 13.6706C33.2344 13.6697 33.2126 13.6687 33.1907 13.6687C31.9942 13.6687 31.0241 14.952 31.0241 16.5344C31.0241 17.7448 31.5919 18.779 32.3937 19.1987C32.3766 19.5783 32.368 19.9597 32.368 20.344C32.368 20.6757 32.3747 21.0054 32.3861 21.335C31.4046 20.1524 29.9304 19.4 28.2812 19.4H26.6273C23.5297 19.4 21.0188 21.9302 21.0188 25.0518V27.9931C21.0188 28.9832 21.8149 29.7854 22.7973 29.7854H31.5957C32.5116 29.7854 33.2868 29.1749 33.5426 28.3363C34.2502 30.6844 35.2507 32.8552 36.4738 34.749C36.2523 34.8605 36.0533 35.0126 35.887 35.1976C34.0391 37.2706 29.8201 38.2146 26.6825 38.2146H1.98965C0.890208 38.2146 0 39.1127 0 40.2196C0 41.3266 0.890208 42.2246 1.98965 42.2246H26.6825C30.5058 42.2246 35.9859 41.086 38.8468 37.8782C38.862 37.861 38.8753 37.8428 38.8896 37.8255C41.5012 40.5503 44.6854 42.2045 48.037 42.2237H48.0389L74.9535 42.999C74.9725 43 74.9924 43 75.0115 43C76.0843 43 76.9688 42.1393 76.9992 41.0525C77.0297 39.9455 76.1651 39.0226 75.0666 38.991Z" fill="#C0A96C"/>
</svg>
