<svg width="41" height="41" viewBox="0 0 41 41" fill="none" xmlns="http://www.w3.org/2000/svg">
<path fill-rule="evenodd" clip-rule="evenodd" d="M20.25 37.125C29.5698 37.125 37.125 29.5698 37.125 20.25C37.125 10.9302 29.5698 3.375 20.25 3.375C10.9302 3.375 3.375 10.9302 3.375 20.25C3.375 29.5698 10.9302 37.125 20.25 37.125Z" stroke="#C0A96C" stroke-width="2" stroke-linecap="round" stroke-linejoin="round"/>
<path d="M20.25 19.4062C22.5799 19.4062 24.4688 17.5174 24.4688 15.1875C24.4688 12.8576 22.5799 10.9688 20.25 10.9688C17.9201 10.9688 16.0312 12.8576 16.0312 15.1875C16.0312 17.5174 17.9201 19.4062 20.25 19.4062Z" stroke="#C0A96C" stroke-width="2" stroke-linejoin="round"/>
<path d="M8.45605 32.3426C8.74605 27.9455 12.4045 24.4688 16.875 24.4688H23.625C28.0896 24.4688 31.7443 27.9363 32.0428 32.3252" stroke="#C0A96C" stroke-width="2" stroke-linecap="round" stroke-linejoin="round"/>
</svg>
