<svg width="36" height="36" viewBox="0 0 36 36" fill="none" xmlns="http://www.w3.org/2000/svg">
<path d="M34.7517 17.8356C35.3039 17.2767 35.6946 16.5683 35.8795 15.7906C36.0643 15.0129 36.0361 14.197 35.7979 13.4351C35.5597 12.6732 35.121 11.9959 34.5316 11.4797C33.9422 10.9634 33.2255 10.6289 32.4626 10.514L25.7287 9.49712C25.5126 9.46478 25.3074 9.3783 25.1306 9.24515C24.9539 9.11199 24.8109 8.93616 24.7141 8.73281L21.7034 2.3924C21.3623 1.67426 20.8346 1.06962 20.1801 0.64684C19.5256 0.224058 18.7703 0 17.9997 0C17.2291 0 16.4738 0.224058 15.8193 0.64684C15.1648 1.06962 14.6372 1.67426 14.2961 2.3924L11.2853 8.73261C11.1887 8.93612 11.0459 9.11215 10.8693 9.24552C10.6926 9.37889 10.4874 9.46559 10.2713 9.49813L3.53739 10.5151C2.77452 10.6299 2.05782 10.9644 1.46839 11.4807C0.878953 11.9969 0.440319 12.6743 0.202118 13.4361C-0.0360834 14.198 -0.0643422 15.0139 0.120539 15.7916C0.30542 16.5693 0.69606 17.2777 1.24826 17.8366L6.1208 22.7716C6.27716 22.9298 6.39414 23.1252 6.46165 23.3409C6.52916 23.5566 6.54516 23.7862 6.50829 24.0097L5.35808 30.9783C5.22604 31.7682 5.30971 32.5806 5.59959 33.3235C5.88946 34.0664 6.37393 34.7099 6.99801 35.1811C7.62208 35.6523 8.36076 35.9323 9.13021 35.9892C9.89966 36.0461 10.669 35.8777 11.3511 35.5031L17.374 32.2127C17.5672 32.1072 17.7822 32.0521 18.0005 32.0521C18.2188 32.0521 18.4338 32.1072 18.627 32.2127L24.6501 35.5031C25.3323 35.8758 26.1011 36.0426 26.8697 35.9849C27.6383 35.9271 28.3761 35.647 28.9995 35.1763C29.623 34.7056 30.1073 34.063 30.3977 33.3212C30.688 32.5793 30.7729 31.7679 30.6427 30.9786L29.4925 24.0099C29.4556 23.7863 29.4716 23.5568 29.5391 23.341C29.6066 23.1253 29.7236 22.9298 29.88 22.7716L34.7517 17.8356ZM27.9359 20.6995C27.4565 21.1852 27.0979 21.7848 26.8911 22.4465C26.6843 23.1083 26.6354 23.8124 26.7487 24.4982L27.8989 31.467C27.9414 31.7243 27.9138 31.9889 27.8191 32.2307C27.7245 32.4726 27.5666 32.6821 27.3633 32.8356C27.1601 32.989 26.9195 33.0803 26.6689 33.0991C26.4184 33.118 26.1677 33.0635 25.9453 32.942L19.9222 29.6516C19.3294 29.3278 18.6698 29.1586 18.0002 29.1586C17.3306 29.1586 16.671 29.3278 16.0782 29.6516L10.0549 32.942C9.83249 33.0635 9.58183 33.1179 9.33124 33.0991C9.08065 33.0803 8.84013 32.989 8.63686 32.8355C8.43359 32.6821 8.27569 32.4726 8.18101 32.2307C8.08632 31.9889 8.05863 31.7243 8.10107 31.467L9.25128 24.498C9.36459 23.8122 9.31573 23.1082 9.10891 22.4464C8.90209 21.7847 8.54351 21.1851 8.06409 20.6995L3.19097 15.7639C3.01092 15.5818 2.88354 15.3509 2.82323 15.0974C2.76293 14.8439 2.77211 14.5779 2.84974 14.3295C2.92737 14.0812 3.07035 13.8604 3.26249 13.6921C3.45463 13.5238 3.68827 13.4148 3.93695 13.3773L10.6708 12.3604C11.3336 12.2604 11.9629 11.9944 12.5047 11.5854C13.0465 11.1765 13.4845 10.6367 13.7809 10.0127L16.7931 3.67246C16.9043 3.43836 17.0763 3.24126 17.2897 3.10345C17.503 2.96564 17.7493 2.8926 18.0005 2.8926C18.2517 2.8926 18.4979 2.96564 18.7113 3.10345C18.9247 3.24126 19.0967 3.43836 19.2079 3.67246L22.2195 10.0129C22.5158 10.6369 22.9536 11.1768 23.4954 11.5858C24.0371 11.9948 24.6665 12.2608 25.3291 12.3608L32.063 13.3777C32.3117 13.4152 32.5454 13.5242 32.7375 13.6925C32.9296 13.8608 33.0726 14.0816 33.1503 14.3299C33.2279 14.5783 33.2371 14.8443 33.1768 15.0978C33.1165 15.3513 32.9891 15.5822 32.809 15.7643L27.9359 20.6995ZM22.8781 14.9804L17.1685 21.7801L13.8679 18.8744C13.7286 18.7506 13.5671 18.6566 13.3927 18.5979C13.2184 18.5391 13.0345 18.5168 12.8518 18.532C12.6691 18.5473 12.4911 18.5999 12.328 18.6869C12.165 18.7739 12.02 18.8934 11.9015 19.0388C11.783 19.1841 11.6933 19.3523 11.6375 19.5338C11.5818 19.7152 11.561 19.9063 11.5765 20.0961C11.592 20.2859 11.6434 20.4707 11.7278 20.6398C11.8122 20.8089 11.9279 20.959 12.0682 21.0815L15.3859 24.0021C15.9407 24.4864 16.6558 24.7258 17.3782 24.6691C18.1007 24.6124 18.7731 24.2641 19.2515 23.6987L24.9759 16.8816C25.2112 16.5914 25.3274 16.2169 25.2995 15.8385C25.2716 15.4602 25.1017 15.1085 24.8265 14.8591C24.5513 14.6097 24.1929 14.4826 23.8284 14.5053C23.4639 14.528 23.1226 14.6986 22.8781 14.9804Z" fill="#C0A96C"/>
</svg>
