<svg width="28" height="36" viewBox="0 0 28 36" fill="none" xmlns="http://www.w3.org/2000/svg">
<g clip-path="url(#clip0_268_119)">
<path d="M14 22.1663C19.0627 22.1663 23.1667 18.0623 23.1667 12.9997C23.1667 7.93706 19.0627 3.83301 14 3.83301C8.93743 3.83301 4.83337 7.93706 4.83337 12.9997C4.83337 18.0623 8.93743 22.1663 14 22.1663Z" stroke="#C0A96C" stroke-width="2"/>
</g>
<g clip-path="url(#clip1_268_119)">
<path d="M14 3.66634C17.2216 3.66634 19.8333 2.92015 19.8333 1.99967C19.8333 1.0792 17.2216 0.333008 14 0.333008C10.7783 0.333008 8.16663 1.0792 8.16663 1.99967C8.16663 2.92015 10.7783 3.66634 14 3.66634Z" stroke="#C0A96C" stroke-width="2"/>
</g>
<path d="M20.5 23H6.5C5.59846 23 4.76891 23.5477 4.5 24.2857L1.09526 32.7048C0.680502 33.8432 1.67205 35 3.06258 35H24.9374C26.3279 35 27.3195 33.8432 26.9047 32.7048L23 23.8571C22.7311 23.1191 21.4015 23 20.5 23Z" stroke="#C0A96C" stroke-width="2"/>
<defs>
<clipPath id="clip0_268_119">
<rect width="22" height="22" fill="white" transform="translate(3 2)"/>
</clipPath>
<clipPath id="clip1_268_119">
<rect width="14" height="4" fill="white" transform="translate(7)"/>
</clipPath>
</defs>
</svg>
