<svg width="41" height="41" viewBox="0 0 41 41" fill="none" xmlns="http://www.w3.org/2000/svg">
<path d="M3.41663 10.25H37.5833V17.0833L36.3887 17.8001C34.4952 18.9362 32.1297 18.9362 30.2362 17.8001L29.0416 17.0833L27.8471 17.8001C25.9536 18.9362 23.588 18.9362 21.6945 17.8001L20.5 17.0833L19.3054 17.8001C17.4119 18.9362 15.0464 18.9362 13.1528 17.8001L11.9583 17.0833L10.7637 17.8001C8.87022 18.9362 6.5047 18.9362 4.6112 17.8001L3.41663 17.0833V10.25Z" stroke="#C0A96C" stroke-width="2" stroke-linecap="round" stroke-linejoin="round"/>
<path d="M6.83337 19.2096V37.5837H34.1667V18.792" stroke="#C0A96C" stroke-width="2" stroke-linecap="round" stroke-linejoin="round"/>
<path d="M6.83337 10.0985V3.41699H34.1667V10.2503" stroke="#C0A96C" stroke-width="2" stroke-linecap="round" stroke-linejoin="round"/>
<path d="M24.7708 27.333H16.2291V37.583H24.7708V27.333Z" stroke="#C0A96C" stroke-width="2" stroke-linecap="round" stroke-linejoin="round"/>
</svg>
