<svg width="74" height="49" viewBox="0 0 74 49" fill="none" xmlns="http://www.w3.org/2000/svg">
<g filter="url(#filter0_d_309_136)">
<rect x="2" y="2" width="54.8917" height="37" rx="10" fill="#F3DA9F"/>
<rect x="4" y="4" width="50.8917" height="33" rx="8" stroke="#C0A96C" stroke-width="4"/>
</g>
<path d="M22.981 14.392C24.5757 16.2207 26.4217 17.668 28.519 18.734L27.843 19.943C25.7543 18.8423 23.9733 17.4037 22.5 15.627C21.1393 17.3083 19.3453 18.7557 17.118 19.969L16.442 18.747C18.6953 17.5683 20.5543 16.1167 22.019 14.392H22.981ZM24.476 20.099H20.446V24.155C20.446 24.649 20.667 24.896 21.109 24.896H24.632C25.3687 24.896 25.828 24.7703 26.01 24.519C26.1833 24.259 26.322 23.7347 26.426 22.946L27.674 23.362C27.518 24.714 27.2753 25.5157 26.946 25.767C26.6167 26.0183 25.9797 26.144 25.035 26.144H20.498C19.5447 26.144 19.068 25.65 19.068 24.662V18.864H25.828V21.984C25.8193 22.894 25.4077 23.375 24.593 23.427C24.1337 23.427 23.5227 23.4097 22.76 23.375L22.396 22.101C23.0373 22.153 23.5833 22.179 24.034 22.179C24.3287 22.179 24.476 21.9537 24.476 21.503V20.099ZM36.189 14.236C36.4403 14.6953 36.6267 15.068 36.748 15.354H41.337V16.68H31.86V19.41C31.8253 22.2873 31.4137 24.6013 30.625 26.352L29.468 25.325C30.118 23.9123 30.456 21.9407 30.482 19.41V15.354H35.227C35.045 15.0247 34.8587 14.7387 34.668 14.496L36.189 14.236ZM34.902 16.797L36.189 17.096L35.942 17.876H40.765V19.059H35.487C35.175 19.787 34.8587 20.411 34.538 20.931H36.371V19.566H37.723V20.931H40.492V22.153H37.723V23.193H41.454V24.428H37.723V26.378H36.371V24.428H31.886V23.193H36.371V22.153H33.173L32.887 20.957C33.277 20.4717 33.6583 19.839 34.031 19.059H32.367V17.876H34.525C34.577 17.746 34.642 17.5683 34.72 17.343L34.902 16.797Z" fill="#594F35"/>
<defs>
<filter id="filter0_d_309_136" x="0" y="0" width="66.8916" height="49" filterUnits="userSpaceOnUse" color-interpolation-filters="sRGB">
<feFlood flood-opacity="0" result="BackgroundImageFix"/>
<feColorMatrix in="SourceAlpha" type="matrix" values="0 0 0 0 0 0 0 0 0 0 0 0 0 0 0 0 0 0 127 0" result="hardAlpha"/>
<feMorphology radius="2" operator="dilate" in="SourceAlpha" result="effect1_dropShadow_309_136"/>
<feOffset dx="4" dy="4"/>
<feGaussianBlur stdDeviation="2"/>
<feComposite in2="hardAlpha" operator="out"/>
<feColorMatrix type="matrix" values="0 0 0 0 0.780392 0 0 0 0 0.713726 0 0 0 0 0.537255 0 0 0 0.2 0"/>
<feBlend mode="normal" in2="BackgroundImageFix" result="effect1_dropShadow_309_136"/>
<feBlend mode="normal" in="SourceGraphic" in2="effect1_dropShadow_309_136" result="shape"/>
</filter>
</defs>
</svg>
